<?xml version="1.0" encoding="utf-8"?>
<!-- Generator: Adobe Illustrator 16.0.0, SVG Export Plug-In . SVG Version: 6.00 Build 0)  -->
<!DOCTYPE svg PUBLIC "-//W3C//DTD SVG 1.1//EN" "http://www.w3.org/Graphics/SVG/1.1/DTD/svg11.dtd">
<svg version="1.1" id="Layer_1" xmlns="http://www.w3.org/2000/svg" xmlns:xlink="http://www.w3.org/1999/xlink" x="0px" y="0px"
	 width="250px" height="500px" viewBox="0 0 250 500" enable-background="new 0 0 250 500" xml:space="preserve">
<g>
	<path fill="#FFFFFF" d="M164.519,53.939c0,21.652-17.552,39.205-39.204,39.205l0,0c-21.652,0-39.205-17.552-39.205-39.205l0,0
		c0-21.652,17.552-39.205,39.205-39.205l0,0C146.967,14.735,164.519,32.287,164.519,53.939L164.519,53.939z"/>
</g>
<g>
	<path fill="#FFFFFF" d="M92.137,178.528c0,21.652-17.552,39.205-39.205,39.205l0,0c-21.652,0-39.205-17.552-39.205-39.205l0,0
		c0-21.652,17.552-39.205,39.205-39.205l0,0C74.585,139.324,92.137,156.876,92.137,178.528L92.137,178.528z"/>
</g>
<g>
	<path fill="#FFFFFF" d="M236.689,178.528c0,21.652-17.553,39.205-39.204,39.205l0,0c-21.652,0-39.205-17.552-39.205-39.205l0,0
		c0-21.652,17.553-39.205,39.205-39.205l0,0C219.137,139.324,236.689,156.876,236.689,178.528L236.689,178.528z"/>
</g>
<g>
	<path fill="#333333" d="M140.562,35.54h-8.178v1.604h0.281c-0.16,1.283-1.804,5.692-7.136,5.692c-5.332,0-7.256-4.811-7.256-4.811
		l-0.083-0.481h-0.068l-0.01-2.004h-8.178l-9.541,9.701l6.575,6.574l2.285-2.886h1.163v23.411h29.985V48.769h0.722l2.886,2.966
		l6.093-6.093L140.562,35.54z"/>
</g>
<g>
	<path fill="#333333" stroke="#FFFFFF" stroke-miterlimit="10" d="M118.121,37.143c0,0-0.035,0.666,0.008,0.882
		c0.421,2.136,2.43,4.903,7.256,4.811c5.215-0.1,6.976-4.409,7.136-5.692"/>
	<path fill="#333333" stroke="#FFFFFF" stroke-miterlimit="10" d="M125.155,43.078c-4.626,0-6.804-2.68-7.262-5.007
		c-0.047-0.233-0.018-0.825-0.012-0.941l0.48,0.025c-0.013,0.246-0.023,0.687,0.003,0.823c0.451,2.288,2.513,4.7,7.015,4.616
		c5.125-0.098,6.77-4.417,6.901-5.481l0.478,0.059c-0.152,1.22-1.848,5.797-7.369,5.903
		C125.311,43.077,125.232,43.078,125.155,43.078z"/>
</g>
<g>
	<path fill="#FFFFFF" d="M136.673,73.982c-0.105,0-0.212-0.035-0.302-0.106l-27.238-21.887c-0.207-0.167-0.24-0.469-0.074-0.676
		c0.166-0.207,0.47-0.24,0.676-0.074l27.239,21.887c0.207,0.167,0.239,0.469,0.073,0.676
		C136.953,73.921,136.813,73.982,136.673,73.982z"/>
</g>
<g>
	<path fill="#FFFFFF" d="M125.008,73.982c-0.109,0-0.218-0.037-0.308-0.112l-16.656-13.89c-0.204-0.17-0.232-0.473-0.061-0.678
		c0.17-0.204,0.473-0.232,0.677-0.061l16.656,13.89c0.203,0.17,0.23,0.473,0.061,0.677
		C125.282,73.924,125.146,73.982,125.008,73.982z"/>
</g>
<g>
	<g>
		<rect x="37.459" y="166.542" fill="#333333" width="30.546" height="4.65"/>
	</g>
	<g>
		<polygon fill="#333333" points="37.459,172.315 68.005,172.315 70.25,191.236 55.498,191.236 53.173,184.422 52.05,184.422 
			50.126,191.236 35.615,191.236 		"/>
	</g>
</g>
<g>
	<g>
		<path fill-rule="evenodd" clip-rule="evenodd" fill="#333333" d="M200.107,162.37c0,0,1.03-0.557,1.419-0.585
			c0.393-0.027,1.813-0.167,2.063-0.111c0.251,0.055,1.699,0.473,2.008,0.473c0.306,0,2.09,0.364,2.228,0.445
			c0.14,0.085,0.978,0.642,0.978,0.642s-0.223,1.059-0.223,1.226c0,0.168-0.084,1.311-0.084,1.478c0,0.167-0.167,1.394-0.167,1.589
			s0.027,1.532-0.028,1.783s-0.167,1.45-0.167,1.757c0,0.307-0.112,1.644-0.112,1.921c0,0.28-0.224,5.854-0.224,6.244
			c0,0.39-0.056,4.626-0.056,4.626l0.726,3.457l0.835,2.173c0,0,0.558,1.198,0.697,1.253s0.669,0.558,0.669,0.558
			s0.893,0.334,1.114,0.391c0.223,0.057,1.062,0.557,1.062,0.557l0.417,0.669c0,0,0.152,0.515-0.028,0.557
			c-0.183,0.042-0.863,0.348-1.032,0.348c-0.167,0-1.058,0.238-1.239,0.238c-0.181,0-1.31,0.307-1.491,0.263
			c-0.181-0.04-1.519,0.083-1.729,0.056c-0.207-0.028-1.379,0-1.504-0.028c-0.126-0.028-0.781-0.151-0.962-0.235
			c-0.181-0.084-0.543-0.224-0.655-0.42c-0.11-0.195-0.376-0.627-0.445-0.849c-0.07-0.223-0.153-0.6-0.25-0.962
			c-0.099-0.362-0.252-0.809-0.252-0.809s-0.403-0.891-0.445-0.961c-0.042-0.07-0.279-0.641-0.459-0.781
			c-0.182-0.138-0.503-0.404-0.601-0.417c-0.098-0.014-0.278,0.125-0.278,0.125s-0.015,0.697,0,0.851
			c0.014,0.153-0.057,1.338-0.027,1.45c0.027,0.111,0.056,0.933,0.068,1.073c0.015,0.139,0.015,0.779,0.015,0.779
			s-0.07,0.112-0.237,0.07c-0.167-0.042-0.794-0.083-0.864-0.098c-0.069-0.014-0.277-0.098-0.277-0.098s-0.07-0.53-0.07-0.669
			s-0.028-0.947-0.028-1.114c0-0.167,0.028-0.975,0.014-1.31c-0.014-0.334-0.111-1.185-0.098-1.588
			c0.014-0.404-0.042-1.116-0.07-1.283c-0.027-0.167-0.11-0.724-0.11-0.948c0-0.223,0.083-0.641,0.251-1.113
			c0.167-0.475,0.642-1.227,0.642-1.366c0-0.14,0.056-1.086,0.056-1.253c0-0.169,0.111-1.534,0.056-1.785
			c-0.056-0.25-0.223-1.199-0.223-1.588c0-0.39-0.363-2.452-0.363-2.452s-0.308-1.979-0.308-2.23s-0.167-2.034-0.167-2.201
			c0-0.167-0.055-1.395-0.055-1.395s-0.14-3.122-0.14-3.371c0-0.251,0.084-1.756,0.057-1.925c-0.028-0.167-0.057-1.309-0.028-1.81
			C200.01,163.165,200.093,162.33,200.107,162.37z"/>
	</g>
	<g>
		<path fill-rule="evenodd" clip-rule="evenodd" fill="#333333" d="M184.881,160.334c-0.13,5.016-0.711,9.703-0.093,14.807
			c0.209,1.721,0.581,3.368,1.027,5.08c0.361,1.389,0.652,2.596,0.893,3.841c0.166,0.871,0.32,1.703,0.404,2.552
			c0.098,0.951,0.188,1.273-0.2,2.135c-0.21,0.487-0.326,0.948-0.369,1.42c-0.099,1.07,0.258,1.743,0.581,2.6
			c0.095,0.25,0.185,0.516,0.263,0.81c0.318,1.385,0.378,2.785,0.479,4.196h0.945c0.056-0.747,0.046-1.448,0.095-2.176
			c0.026-0.396,0.045-0.805,0.145-1.186c0.028-0.105,0.062-0.209,0.104-0.309c0.134,0.103,0.291,0.306,0.442,0.521
			c0.165,0.232,0.296,0.434,0.42,0.646c0.364,0.618,0.592,1.173,0.867,1.718c0.43,0.855,0.666,1.227,1.094,1.414
			c0.548,0.239,1.537,0.319,2.46,0.35c1.122,0.035,2.045,0.075,3.02,0.053c0.578-0.014,1.175-0.051,1.842-0.122
			c0.367-0.052,0.443-0.065,0.639-0.178c0.339-0.196,0.387-0.345,0.351-0.583c-0.059-0.384-0.124-0.573-0.259-0.722
			c-0.278-0.307-0.683-0.531-1.101-0.685c-0.229-0.083-0.464-0.146-0.682-0.19c-0.265-0.053-0.435-0.091-0.576-0.137
			c-0.363-0.118-0.634-0.313-0.86-0.555c-0.599-0.636-0.834-1.24-1.11-2.034c-0.147-0.941-0.331-1.893-0.447-2.837
			c-0.251-2.016-0.759-3.132-1.138-4.919c-0.115-0.534-0.163-1.065-0.226-1.862c0.014-0.456,0.027-0.912,0.042-1.368
			c-0.092-1.201-0.283-2.39-0.467-3.58c-0.407-2.628-0.467-4.746-0.493-7.366c-0.019-1.818,0.015-3.701,0.351-5.281
			c0.794-1.479,0.898-3.976,1.114-5.8c-0.145-0.086-3.172-0.127-5.462-0.178C187.633,160.378,186.213,160.279,184.881,160.334z"/>
	</g>
</g>
<g>
	<path fill="#BFBFBF" d="M37.39,121.748l-2.097-0.199c2.159-22.689,14.275-43.051,33.241-55.865l1.179,1.746
		C51.27,79.889,39.488,99.688,37.39,121.748z"/>
</g>
<g>
	<path fill="#BFBFBF" d="M215.893,121.86c-2.342-22.133-14.291-41.831-32.784-54.041l1.161-1.758
		c19.02,12.559,31.31,32.815,33.719,55.577L215.893,121.86z"/>
</g>
<g>
	<path fill="#BFBFBF" d="M127.616,229.937c-11.419,0-22.841-2.585-33.439-7.745l0.922-1.894c20.01,9.743,43.047,10.048,63.202,0.834
		l0.876,1.917C149.123,227.643,138.371,229.937,127.616,229.937z"/>
</g>
<g>
	<g>
		<path fill="#FFFFFF" d="M125.314,241.022c-15.139,0-29.741-3.17-43.401-9.422l1.202-2.625c13.28,6.079,27.478,9.161,42.2,9.161
			c14.74,0,28.952-3.089,42.242-9.18l1.202,2.623C155.089,237.845,140.473,241.022,125.314,241.022z"/>
	</g>
	<g>
		<polygon fill="#FFFFFF" points="84.825,225.609 89.054,228.38 83.089,230.432 83.411,236.731 79.181,233.959 78.86,227.66 		"/>
	</g>
	<g>
		<polygon fill="#FFFFFF" points="171.157,234.375 166.628,236.62 167.875,230.438 162.278,227.53 166.808,225.282 172.404,228.192 
					"/>
	</g>
</g>
<g>
	<g>
		<path fill="#FFFFFF" d="M226.459,128.099c-1.179-14.174-5.234-27.675-12.052-40.128c-7.8-14.247-19.058-26.571-32.557-35.641
			l1.61-2.396c13.88,9.327,25.457,22,33.478,36.651c7.013,12.809,11.184,26.696,12.397,41.275L226.459,128.099z"/>
	</g>
	<g>
		<polygon fill="#FFFFFF" points="184.462,46.374 188.691,49.146 182.726,51.196 183.048,57.495 178.817,54.724 178.497,48.425 		
			"/>
	</g>
	<g>
		<polygon fill="#FFFFFF" points="222.741,128.721 222.96,123.67 227.773,127.747 233.022,124.25 232.804,129.302 227.554,132.798 
					"/>
	</g>
</g>
<g>
	<g>
		<path fill="#FFFFFF" d="M24.275,126.903l-2.873-0.273c2.958-31.09,19.56-58.991,45.548-76.549l1.616,2.392
			C43.295,69.545,27.151,96.674,24.275,126.903z"/>
	</g>
	<g>
		<polygon fill="#FFFFFF" points="71.621,48.425 71.3,54.724 67.07,57.495 67.392,51.196 61.427,49.146 65.656,46.374 		"/>
	</g>
	<g>
		<polygon fill="#FFFFFF" points="23.167,131.33 17.917,127.833 17.698,122.782 22.948,126.279 27.761,122.202 27.979,127.253 		"/>
	</g>
</g>
<g>
	<path fill="#333333" d="M164.519,300.412c0,21.652-17.552,39.205-39.204,39.205l0,0c-21.652,0-39.205-17.553-39.205-39.205l0,0
		c0-21.652,17.552-39.205,39.205-39.205l0,0C146.967,261.207,164.519,278.76,164.519,300.412L164.519,300.412z"/>
</g>
<g>
	<path fill="#333333" d="M92.137,425.001c0,21.652-17.552,39.204-39.205,39.204l0,0c-21.652,0-39.205-17.552-39.205-39.204l0,0
		c0-21.652,17.552-39.204,39.205-39.204l0,0C74.585,385.797,92.137,403.349,92.137,425.001L92.137,425.001z"/>
</g>
<g>
	<path fill="#333333" d="M236.689,425.001c0,21.652-17.553,39.204-39.204,39.204l0,0c-21.652,0-39.205-17.552-39.205-39.204l0,0
		c0-21.652,17.553-39.204,39.205-39.204l0,0C219.137,385.797,236.689,403.349,236.689,425.001L236.689,425.001z"/>
</g>
<g>
	<path fill="#FFFFFF" d="M140.562,282.012h-8.178v1.604h0.281c-0.16,1.283-1.804,5.693-7.136,5.693
		c-5.332,0-7.256-4.811-7.256-4.811l-0.083-0.481h-0.068l-0.01-2.005h-8.178l-9.541,9.701l6.575,6.574l2.285-2.886h1.163v23.411
		h29.985v-23.571h0.722l2.886,2.966l6.093-6.093L140.562,282.012z"/>
</g>
<g>
	<path fill="#FFFFFF" d="M118.121,283.615c0,0-0.035,0.666,0.008,0.883c0.421,2.135,2.43,4.902,7.256,4.811
		c5.215-0.101,6.976-4.41,7.136-5.693"/>
	<path fill="#333333" d="M125.155,289.551c-4.626,0-6.804-2.68-7.262-5.007c-0.047-0.233-0.018-0.825-0.012-0.94l0.48,0.025
		c-0.013,0.245-0.023,0.687,0.003,0.822c0.451,2.287,2.513,4.7,7.015,4.616c5.125-0.099,6.77-4.417,6.901-5.481l0.478,0.06
		c-0.152,1.22-1.848,5.797-7.369,5.903C125.311,289.55,125.232,289.551,125.155,289.551z"/>
</g>
<g>
	<path fill="#333333" d="M136.673,320.455c-0.105,0-0.212-0.035-0.302-0.105l-27.238-21.888c-0.207-0.167-0.24-0.47-0.074-0.677
		c0.166-0.206,0.47-0.239,0.676-0.073l27.239,21.888c0.207,0.166,0.239,0.469,0.073,0.676
		C136.953,320.394,136.813,320.455,136.673,320.455z"/>
</g>
<g>
	<path fill="#333333" d="M125.008,320.455c-0.109,0-0.218-0.037-0.308-0.111l-16.656-13.891c-0.204-0.17-0.232-0.473-0.061-0.678
		c0.17-0.203,0.473-0.231,0.677-0.061l16.656,13.891c0.203,0.17,0.23,0.473,0.061,0.677
		C125.282,320.396,125.146,320.455,125.008,320.455z"/>
</g>
<g>
	<g>
		<rect x="37.459" y="413.015" fill="#FFFFFF" width="30.546" height="4.65"/>
	</g>
	<g>
		<polygon fill="#FFFFFF" points="37.459,418.788 68.005,418.788 70.25,437.709 55.498,437.709 53.173,430.895 52.05,430.895 
			50.126,437.709 35.615,437.709 		"/>
	</g>
</g>
<g>
	<g>
		<path fill-rule="evenodd" clip-rule="evenodd" fill="#FFFFFF" d="M200.107,408.843c0,0,1.03-0.558,1.419-0.585
			c0.393-0.027,1.813-0.168,2.063-0.111c0.251,0.056,1.699,0.474,2.008,0.474c0.306,0,2.09,0.364,2.228,0.445
			c0.14,0.085,0.978,0.642,0.978,0.642s-0.223,1.059-0.223,1.227s-0.084,1.311-0.084,1.478s-0.167,1.394-0.167,1.589
			s0.027,1.532-0.028,1.783s-0.167,1.449-0.167,1.757c0,0.307-0.112,1.644-0.112,1.921c0,0.281-0.224,5.855-0.224,6.244
			c0,0.391-0.056,4.627-0.056,4.627l0.726,3.457l0.835,2.172c0,0,0.558,1.198,0.697,1.254s0.669,0.559,0.669,0.559
			s0.893,0.334,1.114,0.391c0.223,0.057,1.062,0.557,1.062,0.557l0.417,0.669c0,0,0.152,0.515-0.028,0.557
			c-0.183,0.042-0.863,0.349-1.032,0.349c-0.167,0-1.058,0.237-1.239,0.237c-0.181,0-1.31,0.308-1.491,0.263
			c-0.181-0.039-1.519,0.084-1.729,0.057c-0.207-0.027-1.379,0-1.504-0.027c-0.126-0.029-0.781-0.152-0.962-0.235
			c-0.181-0.084-0.543-0.224-0.655-0.42c-0.11-0.194-0.376-0.627-0.445-0.849c-0.07-0.223-0.153-0.6-0.25-0.962
			c-0.099-0.362-0.252-0.81-0.252-0.81s-0.403-0.891-0.445-0.961c-0.042-0.069-0.279-0.641-0.459-0.78
			c-0.182-0.138-0.503-0.404-0.601-0.417c-0.098-0.015-0.278,0.125-0.278,0.125s-0.015,0.697,0,0.85
			c0.014,0.153-0.057,1.338-0.027,1.45c0.027,0.11,0.056,0.933,0.068,1.073c0.015,0.139,0.015,0.778,0.015,0.778
			s-0.07,0.112-0.237,0.07s-0.794-0.083-0.864-0.098c-0.069-0.015-0.277-0.098-0.277-0.098s-0.07-0.53-0.07-0.669
			s-0.028-0.947-0.028-1.114s0.028-0.976,0.014-1.31c-0.014-0.334-0.111-1.186-0.098-1.588c0.014-0.404-0.042-1.116-0.07-1.283
			c-0.027-0.168-0.11-0.724-0.11-0.948c0-0.223,0.083-0.641,0.251-1.113c0.167-0.475,0.642-1.228,0.642-1.366
			c0-0.14,0.056-1.086,0.056-1.253c0-0.169,0.111-1.534,0.056-1.785c-0.056-0.25-0.223-1.199-0.223-1.588
			c0-0.39-0.363-2.452-0.363-2.452s-0.308-1.979-0.308-2.23s-0.167-2.034-0.167-2.201c0-0.168-0.055-1.395-0.055-1.395
			s-0.14-3.122-0.14-3.371c0-0.252,0.084-1.756,0.057-1.925c-0.028-0.167-0.057-1.31-0.028-1.81
			C200.01,409.638,200.093,408.803,200.107,408.843z"/>
	</g>
	<g>
		<path fill-rule="evenodd" clip-rule="evenodd" fill="#FFFFFF" d="M184.881,406.807c-0.13,5.017-0.711,9.703-0.093,14.807
			c0.209,1.721,0.581,3.368,1.027,5.08c0.361,1.389,0.652,2.597,0.893,3.842c0.166,0.871,0.32,1.702,0.404,2.551
			c0.098,0.951,0.188,1.273-0.2,2.135c-0.21,0.487-0.326,0.948-0.369,1.421c-0.099,1.07,0.258,1.743,0.581,2.6
			c0.095,0.25,0.185,0.517,0.263,0.81c0.318,1.385,0.378,2.785,0.479,4.196h0.945c0.056-0.747,0.046-1.448,0.095-2.176
			c0.026-0.396,0.045-0.806,0.145-1.186c0.028-0.105,0.062-0.209,0.104-0.309c0.134,0.103,0.291,0.306,0.442,0.521
			c0.165,0.232,0.296,0.434,0.42,0.646c0.364,0.618,0.592,1.173,0.867,1.718c0.43,0.855,0.666,1.227,1.094,1.414
			c0.548,0.239,1.537,0.319,2.46,0.35c1.122,0.035,2.045,0.076,3.02,0.053c0.578-0.014,1.175-0.051,1.842-0.121
			c0.367-0.053,0.443-0.065,0.639-0.178c0.339-0.197,0.387-0.346,0.351-0.583c-0.059-0.384-0.124-0.573-0.259-0.722
			c-0.278-0.307-0.683-0.531-1.101-0.686c-0.229-0.084-0.464-0.146-0.682-0.189c-0.265-0.054-0.435-0.092-0.576-0.138
			c-0.363-0.118-0.634-0.313-0.86-0.556c-0.599-0.636-0.834-1.24-1.11-2.033c-0.147-0.941-0.331-1.894-0.447-2.838
			c-0.251-2.016-0.759-3.133-1.138-4.919c-0.115-0.534-0.163-1.065-0.226-1.862c0.014-0.455,0.027-0.912,0.042-1.368
			c-0.092-1.2-0.283-2.39-0.467-3.579c-0.407-2.629-0.467-4.746-0.493-7.366c-0.019-1.817,0.015-3.7,0.351-5.281
			c0.794-1.479,0.898-3.976,1.114-5.8c-0.145-0.087-3.172-0.127-5.462-0.178C187.633,406.852,186.213,406.752,184.881,406.807z"/>
	</g>
</g>
<g>
	<path fill="#BFBFBF" d="M37.39,368.221l-2.097-0.199c2.159-22.689,14.275-43.051,33.241-55.865l1.179,1.746
		C51.27,326.361,39.488,346.16,37.39,368.221z"/>
</g>
<g>
	<path fill="#BFBFBF" d="M215.893,368.332c-2.342-22.133-14.291-41.83-32.784-54.041l1.161-1.758
		c19.02,12.559,31.31,32.816,33.719,55.578L215.893,368.332z"/>
</g>
<g>
	<path fill="#BFBFBF" d="M127.616,476.409c-11.419,0-22.841-2.585-33.439-7.745l0.922-1.894c20.01,9.743,43.047,10.048,63.202,0.835
		l0.876,1.916C149.123,474.115,138.371,476.409,127.616,476.409z"/>
</g>
<g>
	<g>
		<path fill="#333333" d="M125.314,487.495c-15.139,0-29.741-3.17-43.401-9.423l1.202-2.625c13.28,6.08,27.478,9.162,42.2,9.162
			c14.74,0,28.952-3.09,42.242-9.18l1.202,2.623C155.089,484.317,140.473,487.495,125.314,487.495z"/>
	</g>
	<g>
		<polygon fill="#333333" points="84.825,472.082 89.054,474.854 83.089,476.904 83.411,483.203 79.181,480.432 78.86,474.133 		"/>
	</g>
	<g>
		<polygon fill="#333333" points="171.157,480.848 166.628,483.093 167.875,476.91 162.278,474.003 166.808,471.755 
			172.404,474.664 		"/>
	</g>
</g>
<g>
	<g>
		<path fill="#333333" d="M226.459,374.572c-1.179-14.174-5.234-27.676-12.052-40.129c-7.8-14.246-19.058-26.57-32.557-35.641
			l1.61-2.396c13.88,9.327,25.457,22.001,33.478,36.651c7.013,12.81,11.184,26.696,12.397,41.275L226.459,374.572z"/>
	</g>
	<g>
		<polygon fill="#333333" points="184.462,292.846 188.691,295.618 182.726,297.669 183.048,303.968 178.817,301.197 
			178.497,294.897 		"/>
	</g>
	<g>
		<polygon fill="#333333" points="222.741,375.193 222.96,370.143 227.773,374.22 233.022,370.723 232.804,375.774 227.554,379.271 
					"/>
	</g>
</g>
<g>
	<g>
		<path fill="#333333" d="M24.275,373.375l-2.873-0.273c2.958-31.09,19.56-58.99,45.548-76.549l1.616,2.393
			C43.295,316.018,27.151,343.146,24.275,373.375z"/>
	</g>
	<g>
		<polygon fill="#333333" points="71.621,294.897 71.3,301.197 67.07,303.968 67.392,297.669 61.427,295.618 65.656,292.846 		"/>
	</g>
	<g>
		<polygon fill="#333333" points="23.167,377.803 17.917,374.307 17.698,369.254 22.948,372.752 27.761,368.674 27.979,373.726 		
			"/>
	</g>
</g>
</svg>
