<?xml version="1.0" standalone="no"?>
<!DOCTYPE svg PUBLIC "-//W3C//DTD SVG 1.1//EN" "http://www.w3.org/Graphics/SVG/1.1/DTD/svg11.dtd" >
<svg xmlns="http://www.w3.org/2000/svg">
<metadata>Generated by IcoMoon</metadata>
<defs>
<font id="icomoon" horiz-adv-x="1024">
<font-face units-per-em="1024" ascent="960" descent="-64" />
<missing-glyph horiz-adv-x="1024" />
<glyph unicode="&#x20;" horiz-adv-x="512" d="" />
<glyph unicode="&#xe900;" d="M546.415 717.356c4.809 4.766 11.324 7.45 18.125 7.465l194.453 0.431c4.727 0.010 8.559-3.825 8.55-8.553l-0.435-192.675c-0.013-6.741-2.722-13.201-7.531-17.967l-287.492-284.979c-3.362-3.337-8.819-3.337-12.181 0l-200.983 199.223c-3.363 3.337-3.363 8.742 0 12.075l287.494 284.98zM802.603 488.333c4.809 4.766 7.518 11.226 7.531 17.967l0.533 236.027c0.034 14.191-11.58 25.702-25.899 25.67l-238.106-0.527c-6.801-0.015-13.316-2.699-18.125-7.465l-300.068-297.443c-20.182-20.006-20.182-52.442 0-72.448l200.983-199.223c20.181-20.006 52.902-20.006 73.084 0l300.066 297.442zM771.183 427.763c8.41 8.333 22.042 8.333 30.451 0 8.41-8.337 8.41-21.85 0-30.187l-299.277-297.331c-20.083-19.908-52.642-19.908-72.725 0l-207.253 205.44c-8.409 8.333-8.409 21.85 0 30.182 8.409 8.337 22.043 8.337 30.452 0l176.801-175.253c20.083-19.908 52.642-19.908 72.725 0l268.826 267.149z" />
<glyph unicode="&#xe901;" d="M622.178 583.626c-12.548 12.442-12.548 32.614 0 45.056 12.553 12.442 32.905 12.442 45.453 0 12.553-12.442 12.553-32.614 0-45.056-12.548-12.442-32.9-12.442-45.453 0zM591.876 553.589c29.286-29.032 76.77-29.032 106.057 0 29.291 29.031 29.291 76.099 0 105.13-29.286 29.031-76.77 29.031-106.057 0s-29.286-76.099 0-105.13z" />
<glyph unicode="&#xe902;" d="M789.333 340.109c0 21.572-6.613 46.669-20.241 76.855-13.602 30.127-32.956 62.703-56.038 99.068-8.162 12.851-16.781 26.152-25.677 39.881-26.688 41.181-55.868 86.206-82.547 134.425-3.294 5.949-11.913 5.964-15.228 0.028-27.324-48.936-57.37-94.568-84.804-136.23-8.691-13.2-17.122-26.003-25.118-38.385-23.505-36.386-43.226-68.958-57.093-99.076-13.898-30.182-20.6-55.168-20.6-76.565 0-100.621 86.781-190.767 193.674-190.767s193.673 90.146 193.673 190.767zM469.777 578.554c35.085 53.319 72.802 110.628 103.829 172.678 0.58 1.165 1.161 2.332 1.741 3.501 3.315 6.708 6.554 13.471 9.698 20.29 1.395 3.020 2.769 6.052 4.126 9.095 3.102 6.955 13.222 6.954 16.316-0.004 1.353-3.046 2.726-6.082 4.117-9.106 3.136-6.825 6.362-13.592 9.664-20.305 0.576-1.174 1.156-2.347 1.737-3.517 30.528-61.419 67.298-118.191 101.53-171.047 58.428-90.209 109.466-169.015 109.466-240.029 0-124.113-105.813-233.434-236.339-233.434-60.241 0-115.221 23.287-156.962 60.565-19.177-6.801-39.794-10.543-61.263-10.543-102.413 0-185.435 85.116-185.435 181.747 0 55.138 40.252 116.352 86.304 186.389 25.23 38.371 52.2 79.389 75.246 123.505 0.506 0.969 1.010 1.94 1.513 2.912 3.319 6.421 6.552 12.908 9.682 19.461 1.515 3.171 3.006 6.357 4.471 9.56 3.159 6.904 13.278 6.908 16.436 0.003 1.466-3.206 2.959-6.395 4.475-9.569 3.129-6.55 6.361-13.034 9.678-19.452 0.503-0.975 1.009-1.948 1.517-2.919 16.739-32.041 35.546-62.448 54.255-91.393 4.668 7.131 9.408 14.335 14.199 21.613zM430.242 517.581c-14.886 22.786-30.433 47.057-45.266 72.406-3.351 5.727-11.697 5.726-15.048-0.001-18.749-32.044-38.536-62.118-56.695-89.714-7.216-10.965-14.174-21.542-20.708-31.693-17.967-27.921-32.724-52.523-43.004-75.051-10.308-22.592-14.854-40.452-14.854-55.083 0-72.828 63.679-139.081 142.769-139.081 9.92 0 19.599 1.041 28.939 3.008-29.551 39.228-47.054 87.258-47.054 137.737 0 54.106 30.26 112.73 70.922 177.472z" />
<glyph unicode="&#xe903;" d="M471.023 414.541c7.915 8.734 22.148 10.249 30.878 2.338 8.678-7.863 7.966-20.075-0.832-33.297-1.856-2.726-4.497-7.070-7.142-12.975-5.261-11.755-10.603-29.837-9.677-54.054 0.789-20.638 11.447-37.205 23.488-49.438 5.935-6.033 11.861-10.637 16.282-13.713 2.193-1.527 3.977-2.65 5.141-3.349 0.585-0.354 1.468-0.858 1.476-0.862 10.342-5.559 14.251-18.445 8.725-28.817-5.538-10.402-18.85-14.127-29.248-8.589-0.572 0.324-2.044 1.161-2.982 1.728-1.877 1.131-4.446 2.752-7.484 4.868-6.046 4.207-14.123 10.475-22.319 18.803-16.226 16.486-34.368 42.586-35.712 77.734-1.207 31.565 5.773 56.149 13.367 73.118 3.785 8.452 7.701 14.985 10.803 19.541 1.549 2.283 2.901 4.075 3.934 5.376 0.521 0.653 0.956 1.182 1.301 1.587z" />
<glyph unicode="&#xe904;" d="M401.466 703.968l0.29-0.009c11.778-0.383 21.015-10.241 20.632-22.019-0.383-11.775-10.237-21.010-22.012-20.631l-0.267 0.009c-0.116 0.004-0.232 0.007-0.348 0.009-0.2 0.003-0.63 0.010-1.555 0.025-1.564 0.013-3.927 0.014-6.976-0.043-6.104-0.113-14.918-0.456-25.529-1.377-21.339-1.852-49.384-5.997-77.103-15.019-28.16-9.166-50.395-20.148-65.484-28.761-7.537-4.303-13.265-8-17.031-10.56-1.882-1.28-4.199-2.962-5.076-3.604-9.284-7.25-22.833-5.716-30.084 3.567-7.254 9.286-5.604 22.695 3.684 29.946l0.658 0.513c1.255 0.918 4.524 3.295 6.828 4.861 4.606 3.132 11.281 7.428 19.868 12.33 17.159 9.795 42.056 22.066 73.431 32.278 31.816 10.356 63.307 14.931 86.619 16.954 11.714 1.017 21.505 1.401 28.425 1.53 3.463 0.064 9.105 0.017 11.030 0.001z" />
<glyph unicode="&#xe905;" d="M512 832c-25.719 0-47.031-6.691-61.525-13.11-1.519-0.672-2.475-2.185-2.475-3.845v-0.112c0-2.356 1.911-4.267 4.267-4.267h119.467c2.355 0 4.267 1.91 4.267 4.267v0.112c0 1.66-0.956 3.173-2.475 3.845-14.494 6.418-35.806 13.11-61.525 13.11zM456.533 759.467v-4.267c0-4.713-3.819-8.533-8.533-8.533h-38.4c-14.138 0-25.6-11.462-25.6-25.6v-53.22c0-4.168-3.043-7.652-7.014-8.916-20.675-6.582-35.652-25.94-35.652-48.797v-537.6c0-28.275 22.923-51.2 51.2-51.2h238.933c28.275 0 51.2 22.925 51.2 51.2v537.6c0 22.857-14.976 42.215-35.652 48.797-3.972 1.265-7.014 4.748-7.014 8.916v53.22c0 14.138-11.46 25.6-25.6 25.6h-42.667c-4.715 0-8.533 3.82-8.533 8.533v4.267c0 4.713 3.819 8.533 8.533 8.533h21.333c14.14 0 25.6 11.462 25.6 25.6v36.064c0 7.99-3.721 15.515-10.641 19.512-16.418 9.486-50.82 25.49-96.026 25.49s-79.607-16.005-96.026-25.49c-6.918-3.997-10.64-11.522-10.64-19.512v-36.064c0-14.138 11.462-25.6 25.6-25.6h17.067c4.715 0 8.533-3.82 8.533-8.533zM507.733 768h4.267c4.715 0 8.533-3.82 8.533-8.533v-4.267c0-4.713-3.819-8.533-8.533-8.533h-4.267c-4.715 0-8.533 3.82-8.533 8.533v4.267c0 4.713 3.819 8.533 8.533 8.533zM520.533 704h68.267c4.715 0 8.533-3.82 8.533-8.533v-25.6c0-4.713-3.819-8.533-8.533-8.533h-162.133v34.133c0 4.713 3.819 8.533 8.533 8.533h85.333zM546.133 597.333h-68.267c-4.715 0-8.533 3.82-8.533 8.533v4.267c0 4.713 3.819 8.533 8.533 8.533h68.267c4.715 0 8.533-3.82 8.533-8.533v-4.267c0-4.713-3.819-8.533-8.533-8.533zM452.267 554.667c2.355 0 4.267-1.91 4.267-4.267v-83.772c0-2.428-1.092-4.689-2.645-6.558-3.678-4.433-5.888-10.125-5.888-16.337v-311.467c0-14.14 11.46-25.6 25.6-25.6h76.8c14.14 0 25.6 11.46 25.6 25.6v311.467c0 6.212-2.21 11.904-5.888 16.337-1.553 1.869-2.645 4.13-2.645 6.558v88.038h4.267c14.14 0 25.6 11.462 25.6 25.6v29.867c0 4.713 3.819 8.533 8.533 8.533h25.6c4.715 0 8.533-3.82 8.533-8.533v-537.6c0-4.715-3.819-8.533-8.533-8.533h-238.933c-4.713 0-8.533 3.819-8.533 8.533v537.6c0 4.713 3.82 8.533 8.533 8.533h25.6c4.713 0 8.533-3.82 8.533-8.533v-29.867c0-14.138 11.46-25.6 25.6-25.6zM524.8 149.333h-25.6c-4.715 0-8.533 3.819-8.533 8.533v260.267c0 4.715 3.819 8.533 8.533 8.533h25.6c4.715 0 8.533-3.819 8.533-8.533v-260.267c0-4.715-3.819-8.533-8.533-8.533zM516.267 469.333h-8.533c-4.715 0-8.533 3.819-8.533 8.533v68.267c0 4.713 3.819 8.533 8.533 8.533h8.533c4.715 0 8.533-3.82 8.533-8.533v-68.267c0-4.715-3.819-8.533-8.533-8.533z" />
<glyph unicode="&#xe906;" d="M525.453 763.224l341.333-277.332c9.143-7.433 10.534-20.868 3.106-30.012-7.433-9.143-20.868-10.534-30.012-3.106l-36.634 29.764c-5.577 4.531-13.914 0.563-13.914-6.622v-254.050c0-40.060-32.474-72.533-72.533-72.533h-409.599c-40.059 0-72.533 32.474-72.533 72.533v254.050c0 7.185-8.338 11.153-13.914 6.622l-36.633-29.764c-9.144-7.428-22.58-6.037-30.010 3.106s-6.040 22.579 3.104 30.012l341.332 277.332c7.838 6.368 19.068 6.368 26.906 0zM746.667 524.45c0 2.569-1.156 5.005-3.153 6.622l-226.133 183.735c-3.132 2.548-7.625 2.548-10.761 0l-226.133-183.735c-1.994-1.617-3.152-4.053-3.152-6.622v-302.583c0-16.495 13.372-29.867 29.867-29.867h89.6c4.713 0 8.533 3.819 8.533 8.533v157.867c0 25.92 21.013 46.933 46.932 46.933h119.467c25.92 0 46.933-21.013 46.933-46.933v-157.867c0-4.715 3.823-8.533 8.533-8.533h89.6c16.495 0 29.867 13.372 29.867 29.867v302.583zM576 200.533v157.867c0 2.355-1.911 4.267-4.267 4.267h-119.467c-2.355 0-4.267-1.911-4.267-4.267v-157.867c0-4.715 3.823-8.533 8.533-8.533h110.933c4.715 0 8.533 3.819 8.533 8.533z" />
<glyph unicode="&#xe907;" d="M409.6 520.533h204.8c14.138 0 25.6-11.461 25.6-25.6v0c0-14.138-11.461-25.6-25.6-25.6h-204.8c-14.138 0-25.6 11.461-25.6 25.6v0c0 14.138 11.461 25.6 25.6 25.6z" />
<glyph unicode="&#xe908;" d="M277.984 639.523c0.406-2.45 0.659-4.923 0.757-7.406l1.14-31.889 10.709-5.114c7.992-3.817 16.706-5.826 25.539-5.89l332.583-1.821c7.71-0.056 15.36 1.372 22.545 4.208l13.116 5.175c1.587 0.627 2.65 2.142 2.697 3.85l3.358 120.311c0.064 2.402-1.865 4.386-4.267 4.386h-435.525c-3.012 0-5.076-3.037-3.967-5.837l30.448-76.926c0.39-0.985 0.694-2.002 0.867-3.047zM287.556 552.243c-2.906 0.878-5.922-1.297-5.82-4.331l11.268-336.264c0.905-22.891 19.725-40.981 42.633-40.981h298.543c23.061 0 41.95 18.325 42.645 41.378l8.751 334.575c0.077 3.052-2.987 5.206-5.892 4.277-3.465-1.106-6.976-2.023-10.53-2.746-2.044-0.416-3.554-2.187-3.554-4.273v-66.011c0-25.92-21.013-46.933-46.933-46.933h-273.067c-25.92 0-46.933 21.013-46.933 46.933v68.137c0 2.063-1.478 3.82-3.493 4.26-2.563 0.559-5.104 1.22-7.618 1.979zM341.333 543.527v-65.661c0-2.355 1.91-4.267 4.267-4.267h273.067c2.355 0 4.267 1.911 4.267 4.267v64.166c0 2.347-1.894 4.254-4.245 4.267l-273.065 1.495c-2.365 0.013-4.29-1.901-4.29-4.267zM192.315 747.695c-2.034 10.53 6.032 20.305 16.757 20.305h507.864c9.626 0 17.348-7.959 17.058-17.583l-1.054-37.645c-0.137-4.805 3.721-8.772 8.529-8.772h17.997c4.715 0 8.533 3.82 8.533 8.533 0 28.277 22.925 51.2 51.2 51.2h4.267c28.275 0 51.2-22.923 51.2-51.2v-324.267c0-28.275-22.925-51.2-51.2-51.2h-4.267c-28.275 0-51.2 22.925-51.2 51.2v164.582c0 2.464-1.041 4.846-3.029 6.3-7.497 5.48-16.585 8.564-26.048 8.675l-1.634 0.019c-4.663 0.054-8.503-3.646-8.627-8.308l-9.186-348.783c-1.395-46.101-39.172-82.752-85.295-82.752h-298.543c-45.817 0-83.457 36.181-85.267 81.963l-14.263 420.47c-0.015 0.372-0.041 0.742-0.080 1.112-0.102 0.972-0.39 1.911-0.737 2.824l-42.976 113.327zM756.339 608.639c5.781-1.208 11.661 2.928 11.661 8.834v35.327c0 4.713-3.819 8.533-8.533 8.533h-19.669c-4.621 0-8.401-3.677-8.533-8.294l-0.943-33.772c-0.137-4.766 3.661-8.716 8.431-8.772l0.666-0.008c5.739-0.067 11.401-0.694 16.922-1.848zM810.667 704v-315.733c0-4.715 3.819-8.533 8.533-8.533h4.267c4.715 0 8.533 3.819 8.533 8.533v324.267c0 4.713-3.819 8.533-8.533 8.533h-4.267c-4.715 0-8.533-3.82-8.533-8.533v-8.533z" />
<glyph unicode="&#xe909;" d="M584.533 264.533c14.14 0 25.6-11.46 25.6-25.6s-11.46-25.6-25.6-25.6h-204.8c-14.138 0-25.6 11.46-25.6 25.6s11.462 25.6 25.6 25.6h204.8z" />
<glyph unicode="&#xe90a;" d="M512 704c-93.061 0-176.543-4.727-236.067-12.167-23.642-2.956-42.496-6.219-56.265-9.486-3.754-0.891-6.335-4.279-6.335-8.137v-123.809c0-4.713 3.82-8.533 8.533-8.533h580.267c4.715 0 8.533 3.82 8.533 8.533v123.809c0 3.858-2.581 7.247-6.336 8.137-13.769 3.267-32.623 6.531-56.265 9.486-59.524 7.441-143.006 12.167-236.066 12.167zM230.4 490.667c0 4.715-3.82 8.533-8.533 8.533h-25.6c-14.138 0-25.6 11.46-25.6 25.6v179.2c0 23.564 152.82 42.667 341.333 42.667s341.333-19.103 341.333-42.667v-179.2c0-14.14-11.46-25.6-25.6-25.6h-29.867c-4.715 0-8.533-3.819-8.533-8.533v-290.133c0-28.275-22.925-51.2-51.2-51.2h-68.267c-28.275 0-51.2 22.925-51.2 51.2v290.133c0 4.715-3.819 8.533-8.533 8.533h-4.267c-4.715 0-8.533-3.819-8.533-8.533v-290.133c0-28.275-22.925-51.2-51.2-51.2h-68.267c-28.275 0-51.2 22.925-51.2 51.2v290.133c0 4.715-3.82 8.533-8.533 8.533h-4.267c-4.713 0-8.533-3.819-8.533-8.533v-290.133c0-28.275-22.923-51.2-51.2-51.2h-72.533c-28.277 0-51.2 22.925-51.2 51.2v290.133zM281.6 499.2c-4.713 0-8.533-3.819-8.533-8.533v-290.133c0-4.715 3.82-8.533 8.533-8.533h72.533c4.713 0 8.533 3.819 8.533 8.533v290.133c0 4.715-3.82 8.533-8.533 8.533h-72.533zM477.867 499.2c-4.715 0-8.533-3.819-8.533-8.533v-290.133c0-4.715 3.819-8.533 8.533-8.533h68.267c4.715 0 8.533 3.819 8.533 8.533v290.133c0 4.715-3.819 8.533-8.533 8.533h-68.267zM669.867 499.2c-4.715 0-8.533-3.819-8.533-8.533v-290.133c0-4.715 3.819-8.533 8.533-8.533h68.267c4.715 0 8.533 3.819 8.533 8.533v290.133c0 4.715-3.819 8.533-8.533 8.533h-68.267z" />
<glyph unicode="&#xe90b;" d="M384 635.733c0 14.138 11.462 25.6 25.6 25.6h204.8c14.14 0 25.6-11.462 25.6-25.6s-11.46-25.6-25.6-25.6h-204.8c-14.138 0-25.6 11.462-25.6 25.6z" />
<glyph unicode="&#xe90c;" d="M695.467 618.667c4.715 0 8.533-3.82 8.533-8.533v-110.933c0-4.715-3.819-8.533-8.533-8.533h-68.267c-4.715 0-8.533 3.819-8.533 8.533v110.933c0 4.713 3.819 8.533 8.533 8.533h68.267zM627.2 661.333c-28.275 0-51.2-22.923-51.2-51.2v-110.933c0-28.275 22.925-51.2 51.2-51.2h68.267c28.275 0 51.2 22.925 51.2 51.2v110.933c0 28.277-22.925 51.2-51.2 51.2h-68.267z" />
<glyph unicode="&#xe90d;" d="M448 738.133v-580.267c0-4.715 3.819-8.533 8.533-8.533h302.933c4.715 0 8.533 3.819 8.533 8.533v580.267c0 4.713-3.819 8.533-8.533 8.533h-302.933c-4.715 0-8.533-3.82-8.533-8.533zM405.333 789.333h354.133c28.275 0 51.2-22.923 51.2-51.2v-580.267c0-28.275-22.925-51.2-51.2-51.2h-494.933c-28.277 0-51.2 22.925-51.2 51.2v580.267c0 28.277 22.923 51.2 51.2 51.2h140.8zM405.333 157.867v580.267c0 4.713-3.82 8.533-8.533 8.533h-132.267c-4.713 0-8.533-3.82-8.533-8.533v-580.267c0-4.715 3.82-8.533 8.533-8.533h132.267c4.713 0 8.533 3.819 8.533 8.533zM482.133 507.733v-119.467c0-14.14 11.46-25.6 25.6-25.6s25.6 11.46 25.6 25.6v119.467c0 14.14-11.46 25.6-25.6 25.6s-25.6-11.46-25.6-25.6zM345.6 533.333c14.138 0 25.6-11.46 25.6-25.6v-119.467c0-14.14-11.462-25.6-25.6-25.6s-25.6 11.46-25.6 25.6v119.467c0 14.14 11.462 25.6 25.6 25.6z" />
<glyph unicode="&#xe90e;" d="M682.667 661.333v-426.667c0-94.255-76.412-170.667-170.667-170.667-94.257 0-170.667 76.412-170.667 170.667v426.667c0 94.257 76.41 170.667 170.667 170.667 94.255 0 170.667-76.41 170.667-170.667zM725.333 661.333c0 117.821-95.514 213.333-213.333 213.333s-213.333-95.513-213.333-213.333v-426.667c0-117.82 95.513-213.333 213.333-213.333s213.333 95.514 213.333 213.333v426.667zM512 448c-58.91 0-106.667 47.757-106.667 106.667s47.757 106.667 106.667 106.667c58.91 0 106.667-47.756 106.667-106.667s-47.757-106.667-106.667-106.667zM512 405.333c82.475 0 149.333 66.859 149.333 149.333s-66.859 149.333-149.333 149.333c-82.475 0-149.333-66.859-149.333-149.333s66.859-149.333 149.333-149.333zM618.667 234.667c0 58.91-47.757 106.667-106.667 106.667s-106.667-47.757-106.667-106.667c0-58.91 47.757-106.667 106.667-106.667s106.667 47.757 106.667 106.667zM661.333 234.667c0-82.475-66.859-149.333-149.333-149.333s-149.333 66.859-149.333 149.333c0 82.475 66.859 149.333 149.333 149.333s149.333-66.859 149.333-149.333z" />
<glyph unicode="&#xe90f;" d="M512 640c-14.135 0-25.6-11.462-25.6-25.6v-119.467c0-14.14 11.465-25.6 25.6-25.6 14.14 0 25.6 11.46 25.6 25.6v119.467c0 14.138-11.46 25.6-25.6 25.6zM512 320c-14.135 0-25.6-11.46-25.6-25.6v-119.467c0-14.14 11.465-25.6 25.6-25.6 14.14 0 25.6 11.46 25.6 25.6v119.467c0 14.14-11.46 25.6-25.6 25.6z" />
<glyph unicode="&#xe910;" glyph-name="Filter" d="M151.012 780.616l199.331-341.977c1.653-3.311 5.031-5.397 8.727-5.397h305.86c3.695 0 7.074 2.086 8.725 5.397l199.334 341.977c3.243 6.493-1.476 14.131-8.73 14.131h-704.521c-7.253 0-11.971-7.639-8.727-14.131zM316.858 372.348c0 1.519-0.353 3.012-1.030 4.369l-224.239 391.83c-19.463 38.954 8.842 84.786 52.362 84.786h736.096c43.52 0 71.825-45.833 52.365-84.786l-224.239-391.83c-0.678-1.357-1.033-2.85-1.033-4.369v-271.095c0-32.354-26.21-58.586-58.543-58.586h-273.196c-32.332 0-58.543 26.231-58.543 58.586v271.095zM648.597 364.89c0 5.393-4.365 9.766-9.754 9.766h-253.686c-5.389 0-9.757-4.373-9.757-9.766v-253.871c0-5.393 4.368-9.766 9.757-9.766h253.686c5.389 0 9.754 4.373 9.754 9.766v253.871z" />
<glyph unicode="&#xe911;" glyph-name="Time---Circle" d="M878.43 448c0 202.374-164.053 366.432-366.43 366.432-202.374 0-366.432-164.057-366.432-366.432 0-202.377 164.057-366.43 366.432-366.43 202.377 0 366.43 164.053 366.43 366.43zM938.667 448c0-235.639-191.027-426.667-426.667-426.667-235.642 0-426.667 191.027-426.667 426.667 0 235.642 191.025 426.667 426.667 426.667 235.639 0 426.667-191.025 426.667-426.667zM539.61 676.392v-220.375l113.476-106.53c12.126-11.383 12.727-30.443 1.344-42.573-11.388-12.126-30.447-12.727-42.573-1.344l-122.982 115.452c-6.063 5.692-9.502 13.641-9.502 21.961v233.41c0 16.634 13.483 30.118 30.118 30.118 16.631 0 30.118-13.484 30.118-30.118z" />
<glyph unicode="&#xe912;" glyph-name="Menu" d="M85.333 728.615c0 21.751 17.979 39.385 40.157 39.385h773.018c22.178 0 40.158-17.633 40.158-39.385s-17.98-39.384-40.158-39.384h-773.018c-22.178 0-40.157 17.633-40.157 39.384zM85.333 448c0 21.751 17.979 39.386 40.157 39.386h773.018c22.178 0 40.158-17.634 40.158-39.386s-17.98-39.386-40.158-39.386h-773.018c-22.178 0-40.157 17.634-40.157 39.386zM125.49 206.771c-22.178 0-40.157-17.634-40.157-39.386s17.979-39.386 40.157-39.386h773.018c22.178 0 40.158 17.634 40.158 39.386s-17.98 39.386-40.158 39.386h-773.018z" />
<glyph unicode="&#xe913;" glyph-name="Cart" d="M3.205 891.756c8.758 21.244 32.766 31.233 53.623 22.313l139.269-59.564c11.203-4.791 19.739-14.402 23.302-26.234l28.484-94.606h735.157c12.971 0 25.178-6.259 32.905-16.873 7.723-10.614 10.057-24.328 6.289-36.97l-103.996-348.725c-5.244-17.579-21.158-29.594-39.194-29.594h-526.819l-18.622-77.751h543.858c22.622 0 40.96-18.679 40.96-41.719s-18.338-41.719-40.96-41.719h-596.011c-12.572 0-24.448 5.884-32.212 15.953s-10.56 23.215-7.58 35.652l35.973 150.191-99.229 337.742-31.7 105.285-121.59 52.003c-20.857 8.92-30.665 33.373-21.907 54.617zM272.613 650.228l77.942-265.29h498.124l79.113 265.29h-655.178zM907.58 41.246c0-34.564-27.507-62.579-61.44-62.579s-61.44 28.015-61.44 62.579c0 34.56 27.507 62.575 61.44 62.575s61.44-28.015 61.44-62.575zM312.594-21.333c33.932 0 61.439 28.015 61.439 62.579 0 34.56-27.507 62.575-61.439 62.575s-61.44-28.015-61.44-62.575c0-34.564 27.507-62.579 61.44-62.579z" />
<glyph unicode="&#xe914;" glyph-name="Account" d="M719.403 622.705c0-103.734-89.865-193.79-208.316-193.79-118.45 0-208.313 90.057-208.313 193.79s89.863 193.791 208.313 193.791c118.451 0 208.316-90.057 208.316-193.791zM675.204 397.862c75.234 49.327 124.51 131.635 124.51 224.843 0 150.936-129.22 273.295-288.627 273.295-159.404 0-288.627-122.358-288.627-273.295 0-93.481 49.57-176.003 125.178-225.278-152.702-57.988-262.305-194.466-262.305-357.675 0-21.956 17.979-39.753 40.157-39.753s40.157 17.796 40.157 39.753c0 166.665 151.38 308.075 346.353 308.075s346.351-141.41 346.351-308.075c0-21.956 17.98-39.753 40.158-39.753s40.158 17.796 40.158 39.753c0 163.618-110.157 300.373-263.462 358.11z" />
<glyph unicode="&#xe915;" glyph-name="Search" d="M684.164 535.329c0 143.314-116.181 259.493-259.494 259.493s-259.493-116.179-259.493-259.493c0-143.312 116.179-259.494 259.493-259.494 143.312 0 259.494 116.181 259.494 259.494zM634.731 268.809c-57.775-45.602-130.739-72.815-210.060-72.815-187.411 0-339.337 151.923-339.337 339.336 0 187.411 151.927 339.337 339.337 339.337 187.412 0 339.336-151.927 339.336-339.337 0-79.321-27.213-152.285-72.815-210.060l235.78-235.785c15.595-15.59 15.595-40.866 0-56.457-15.59-15.595-40.866-15.595-56.457 0l-235.785 235.78z" />
<glyph unicode="&#xe916;" glyph-name="Back-to-Top" d="M512 874.667c10.611 0 20.736-4.375 27.917-12.063l346.074-370.461c14.178-15.177 13.171-38.793-2.244-52.749-15.42-13.956-39.411-12.966-53.589 2.21l-280.23 299.978v-682.916c0-20.621-16.981-37.333-37.926-37.333s-37.926 16.713-37.926 37.333v682.916l-280.23-299.978c-14.178-15.177-38.17-16.166-53.588-2.21s-16.424 37.572-2.246 52.749l346.074 370.461c7.181 7.688 17.306 12.063 27.917 12.063z" />
<glyph unicode="&#xe917;" d="M262.571 354.534l-31.189-116.433-113.994-2.411c-34.067 63.185-53.391 135.479-53.391 212.305 0 74.291 18.067 144.347 50.092 206.033h0.024l101.487-18.606 44.457-100.878c-9.305-27.127-14.377-56.247-14.377-86.549 0.003-32.883 5.961-64.393 16.89-93.461z" />
<glyph unicode="&#xe918;" d="M952.171 531.691c5.146-27.102 7.829-55.087 7.829-83.695 0-32.073-3.375-63.36-9.796-93.538-21.811-102.694-78.797-192.367-157.734-255.829l-0.026 0.026-127.829 6.524-18.091 112.934c52.382 30.72 93.316 78.797 114.88 136.346h-239.556v177.233h430.323z" />
<glyph unicode="&#xe919;" d="M792.444 98.662l0.026-0.026c-76.774-61.709-174.302-98.633-280.469-98.633-170.608 0-318.941 95.36-394.609 235.691l145.183 118.844c37.833-100.971 135.237-172.851 249.427-172.851 49.084 0 95.066 13.269 134.524 36.433l145.92-119.458z" />
<glyph unicode="&#xe91a;" d="M797.961 792.864l-145.135-118.818c-40.836 25.525-89.105 40.271-140.821 40.271-116.778 0-216.003-75.175-251.942-179.768l-145.946 119.484c74.561 143.754 224.739 241.97 397.887 241.97 108.702 0 208.367-38.72 285.956-103.139z" />
<glyph unicode="&#xe91b;" glyph-name="Instagram" d="M511.757 874.667c91.166 0 185.271-2.943 185.271-2.943 133.316 0 238.208-104.95 238.699-238.345 0 0 2.94-92.199 2.94-182.435 0-92.203-2.94-188.322-2.94-188.322 0-133.397-104.892-238.345-238.208-238.345 0 0-100.48-2.944-194.586-2.944-88.226 0-173.51 2.944-173.51 2.944-133.318 0-241.149 107.891-241.149 241.284 0 0-2.941 97.105-2.941 191.266 0 88.276 2.941 173.609 2.941 173.609 0 133.395 107.831 241.287 241.149 241.287 0 0 91.166 2.943 182.334 2.943zM682.325 100.783c108.809 0 176.448 67.187 176.448 176.55 0 0 2.449 97.596 2.449 173.12 0 74.052-2.449 168.213-2.449 168.213 0 108.873-67.149 176.552-176.448 176.552 0 0-95.578 2.452-170.569 2.452-74.995 0-167.63-2.452-167.63-2.452-108.811 0-179.391-67.188-179.391-176.552 0 0-2.451-91.217-2.451-163.311 0-76.996 2.451-175.078 2.451-175.078 0-108.877 70.090-179.494 179.391-179.494 0 0 88.227-2.453 160.274-2.453 76.954 0 177.924 2.453 177.924 2.453zM298.667 448.922c0 118.182 95.518 214.264 213.005 214.264s213.005-96.082 213.005-214.264c0-118.182-95.518-214.263-213.005-214.263s-213.005 96.081-213.005 214.263zM373.171 448.922c0-76.868 62.085-139.319 138.501-139.319s138.5 62.451 138.5 139.319c0 76.864-62.084 139.319-138.5 139.319s-138.501-62.455-138.501-139.319zM683.127 670.392c0 28.825 23.403 51.884 51.58 51.884s51.58-23.060 51.58-51.884c0-28.825-23.403-51.885-51.58-51.885-28.655 0-51.58 23.060-51.58 51.885z" />
<glyph unicode="&#xe91c;" glyph-name="Youtube" d="M912.653 788.483c43.857-11.952 78.447-46.933 90.249-91.313 21.939-81.059 21.094-250.023 21.094-250.023s0-168.102-21.086-249.173c-11.81-44.369-46.391-79.36-90.257-91.302-80.132-21.338-400.657-21.338-400.657-21.338s-319.685 0-400.652 22.182c-43.868 11.955-78.445 46.942-90.257 91.311-21.086 80.218-21.086 249.173-21.086 249.173s0 168.111 21.086 249.17c11.804 44.372 47.234 80.215 90.25 92.157 80.131 21.34 400.656 21.34 400.656 21.34s320.529 0 400.661-22.184zM676.48 448.013l-266.54-144.213v288.429l266.54-144.215z" />
<glyph unicode="&#xe91d;" glyph-name="Zendesk-Live-Chat" d="M858.351 456.977c0-168.294-148.89-315.533-346.351-315.533-11.755 0-32.111 2.189-54.144 5.414-20.779 3.038-38.759 6.345-43.815 7.296-18.53 3.482-37.222 0.636-53.438-7.42-7.262-3.605-45.108-22.003-88.411-36.958 19.002 53.798 1.236 101.175-3.331 112.307-4.916 11.985-11.746 21.18-18.134 27.866-53.669 56.149-85.080 128.614-85.080 207.027 0 168.293 148.894 315.531 346.353 315.531 197.461 0 346.351-147.238 346.351-315.531zM194.626 191.241c2.79-6.801 12.918-35.682-2.626-64.563-6.565-12.975-15.218-27.482-24.55-42.005-1.206-1.873-2.423-3.75-3.648-5.623-6.868-10.505-13.997-20.907-20.851-30.639-3.993-5.67-7.893-11.11-11.593-16.209-10.416-14.353 0.784-34.449 18.274-31.996 6.562 0.922 13.61 1.963 21.001 3.123 11.312 1.779 23.43 3.844 35.847 6.208 2.876 0.55 5.769 1.114 8.67 1.694 22.29 4.463 45.154 9.886 65.739 16.358 55.358 17.412 105.968 42.057 115.254 46.665 0.993 0.495 2.076 0.653 3.165 0.448 11.183-2.099 76.558-14.080 112.692-14.080 235.639 0 426.667 177.455 426.667 396.356s-191.027 396.356-426.667 396.356c-235.642 0-426.667-177.455-426.667-396.356 0-100.949 40.623-193.079 107.512-263.061 0.747-0.781 1.37-1.673 1.781-2.675zM311.216 378.483c33.267 0 60.235 27.14 60.235 60.617 0 33.481-26.968 60.621-60.235 60.621s-60.236-27.14-60.236-60.621c0-33.476 26.968-60.617 60.236-60.617zM572.237 439.1c0-33.476-26.97-60.617-60.237-60.617s-60.237 27.14-60.237 60.617c0 33.481 26.97 60.621 60.237 60.621s60.237-27.14 60.237-60.621zM712.785 378.483c33.267 0 60.233 27.14 60.233 60.617 0 33.481-26.965 60.621-60.233 60.621s-60.237-27.14-60.237-60.621c0-33.476 26.97-60.617 60.237-60.617z" />
<glyph unicode="&#xe91e;" glyph-name="Pinterest" d="M512 896c-247.543 0-448-200.607-448-448.337 0-189.837 117.718-352.073 284.541-417.37-4.036 35.678-7.399 89.532 1.345 128.576 8.072 35.008 52.468 222.822 52.468 222.822s-13.454 26.927-13.454 66.645c0 62.605 36.325 109.054 80.723 109.054 38.34 0 56.503-28.948 56.503-63.277 0-38.374-24.218-96.265-36.996-149.449-10.765-44.429 22.195-80.781 66.594-80.781 79.373 0 140.587 84.147 140.587 205.321 0 107.035-77.355 182.431-187.004 182.431-127.133 0-202.473-95.591-202.473-194.548 0-38.37 14.799-80.107 33.634-102.323 3.363-4.71 4.036-8.077 3.363-12.791-3.363-14.135-10.763-44.429-12.108-50.487-2.018-8.077-6.726-10.099-14.799-6.059-55.832 26.253-90.811 107.708-90.811 173.679 0 141.369 102.919 271.292 295.977 271.292 155.388 0 275.793-111.075 275.793-258.501 0-154.159-97.536-278.694-232.068-278.694-45.069 0-88.124 23.561-102.921 51.162 0 0-22.199-85.495-27.58-106.364-10.090-39.044-37.67-87.514-55.832-117.807 41.706-12.787 86.104-20.194 132.517-20.194 247.543 0 448 200.606 448 448.337 0 247.056-200.457 447.663-448 447.663z" />
<glyph unicode="&#xe91f;" glyph-name="Property-1Customer-support" d="M903.437 525.171c-8.546 8.337-13.38 19.591-14.34 31.386-15.462 189.694-178.675 339.442-377.097 339.442-198.42 0-361.635-149.749-377.097-339.443-0.961-11.795-5.794-23.049-14.342-31.386-8.893-8.674-13.895-20.476-13.895-32.785v-142.012c0-11.968 4.864-23.445 13.511-31.876 8.647-8.435 13.511-19.913 13.511-31.881v-103.902c0-71.689 59.802-130.010 133.31-130.010h33.472c11.155-30.673 41.191-52.706 76.419-52.706h54.045c35.251 0 65.306 22.063 76.442 52.77 1.545-0.026 3.089-0.064 4.625-0.064 124.71 0 229.961 82.82 260.958 195.021 2.522 9.122 10.739 15.804 20.361 15.804h29.090c16.047 0 31.441 6.234 42.833 17.34l34.125 33.28c11.499 11.217 17.967 26.475 17.967 42.394v135.842c0 12.309-5.001 24.111-13.897 32.785zM512 843.294c160.388 0 293.931-114.159 319.74-263.53h-54.95c-25.105 120.142-134.293 210.824-264.789 210.824s-239.683-90.682-264.789-210.824h-54.949c25.806 149.37 159.35 263.53 319.738 263.53zM721.335 579.764c-87.351 0.255-133.85-4.933-184.721 67.587l-15.458 22.039c-4.262 6.072-13.53 5.645-17.19-0.791l-13.282-23.34c-30.933-54.356-87.787-65.494-140.817-65.494h-47.204c24.059 90.827 108.791 158.118 209.338 158.118 100.544 0 185.28-67.291 209.335-158.118zM241.778 336.145c0-10.995-9.074-19.908-20.267-19.908h-14.234c-5.349 0-10.481 2.078-14.278 5.777l-26.299 25.651c-3.833 3.738-5.989 8.823-5.989 14.131v119.706c0 5.303 2.156 10.389 5.989 14.131l26.299 25.647c3.796 3.699 8.928 5.777 14.278 5.777h14.234c11.193 0 20.267-8.913 20.267-19.908v-171.004zM187.733 182.716v60.902c0 10.995 9.073 19.913 20.267 19.913h22.599c9.636 0 17.859-6.694 20.364-15.834 11.783-42.991 34.617-82.359 66.767-114.667-7.559-7.876-13.488-17.246-17.26-27.618h-33.472c-43.708 0-79.265 34.675-79.265 77.303zM430.933 52.706h-54.045c-14.902 0-27.022 11.819-27.022 26.351s12.12 26.355 27.022 26.355h54.045c14.899 0 27.021-11.823 27.021-26.355s-12.122-26.351-27.021-26.351zM728.179 316.237c0-116.25-96.977-210.825-216.179-210.825-1.549 0-3.11 0.030-4.672 0.064-11.17 30.639-41.19 52.642-76.395 52.642-55.486-0.119-54.601 0.269-61.517-0.35-46.915 40.102-73.594 97.22-73.594 158.468v190.912c0 10.995 9.074 19.908 20.267 19.908h33.778c42.486 0 108.395 6.071 150.793 44.943 8.849 8.113 22.861 8.648 32.179 1.060 56.085-45.666 106.321-46.003 165.611-46.003h9.463c11.191 0 20.267-8.913 20.267-19.908v-190.912zM863.287 361.796c0-5.308-2.155-10.394-5.986-14.131l-26.3-25.651c-3.797-3.699-8.93-5.777-14.281-5.777h-14.234c-11.191 0-20.267 8.913-20.267 19.908v171.004c0 10.995 9.075 19.908 20.267 19.908h14.234c5.35 0 10.483-2.078 14.281-5.777l26.3-25.647c3.831-3.742 5.986-8.828 5.986-14.131v-119.706z" />
<glyph unicode="&#xe920;" glyph-name="Twitter" d="M1024 757.424c-37.815-16.41-78.251-27.35-120.559-32.091 43.43 25.162 76.753 65.276 92.48 113.048-40.811-23.339-85.739-40.479-133.666-49.596-19.618 20.409-43.332 36.67-69.679 47.774-26.342 11.104-54.746 16.813-83.452 16.773-116.066 0-210.039-91.533-210.039-204.582 0-16.045 1.869-31.727 5.615-46.678-174.848 8.752-329.478 90.074-433.188 213.698-17.972-30.268-28.455-65.276-28.455-102.837 0-71.111 37.066-133.47 93.601-170.302-34.445 1.094-66.644 10.211-95.099 25.527v-2.553c0-99.192 72.26-181.607 168.483-200.568-17.597-4.745-36.317-7.296-55.412-7.296-13.478 0-26.583 1.459-39.687 3.648 26.583-81.323 104.459-140.399 196.189-142.221-71.886-54.703-162.492-87.522-260.961-87.522-16.848 0-33.697 1.092-50.17 2.914 92.852-57.98 203.302-91.895 321.989-91.895 386.388 0 597.55 311.795 597.55 582.017 0 8.752-0.371 17.869-0.747 26.621 41.557 29.174 77.129 65.277 105.207 106.12z" />
<glyph unicode="&#xe921;" glyph-name="Shipping" d="M872.503 432.043v395.727c0 14.118-11.238 25.564-25.101 25.564h-672.539c-13.863 0-25.102-11.446-25.102-25.564v-427.275c-12.109-1.796-23.948-6.583-34.42-14.502-33.014-23.842-40.823-77.193-13.169-110.097l113.065-139.588c69.988-83.418 144.335-93.641 254.863-93.641 94.844 0 137.25-0.427 219.913 18.756l80.491 19.605c13.052-18.56 33.771-30.583 57.062-30.583h39.65c39.398 0 71.45 34.385 71.45 76.651v228.523c0 40.358-29.227 73.51-66.163 76.425zM759.676 379.456l-33.446 17.297c-54.993 28.271-118.571 29.316-174.434 2.867-15.241-6.106-48.478-26.586-65.719-25.899h-116.060c-38.496 0-69.817-31.898-69.817-71.104v-18.641c-0.216 0.23-0.442 0.452-0.654 0.687l-82.879 91.614c-5.015 5.547-10.65 10.185-16.698 13.905v253.624h205.424v-93.709c0-14.118 11.239-25.562 25.103-25.562h158.396c13.862 0 25.101 11.444 25.101 25.562v93.709h208.311v-211.764c-29.329-2.308-53.786-23.676-62.626-52.587zM455.595 643.807h108.19v-68.146h-108.19v68.146zM822.302 694.934h-208.311v107.272h208.311v-107.272zM563.789 802.206v-107.273h-108.194v107.273h108.194zM405.39 802.206v-107.273h-205.424v107.273h205.424zM678.362 111.155c-76.361-17.809-122.351-17.088-207.36-17.088-103.757 0-153.889 1.707-217.033 74.773l-113.065 139.588c-19.667 26.082 15.955 56.87 38.838 33.212l82.879-91.618c21.904-23.535 49.468-36.493 83.441-37.252h229.78c13.862 0 25.101 11.443 25.101 25.562s-11.238 25.566-25.101 25.566h-225.441v38.724c0 11.012 8.797 19.972 19.613 19.972h116.057c26.146-1.903 63.885 20.331 86.891 30.669 41.835 19.81 89.455 19.025 130.59-2.116l52.57-27.196v-193.852l-77.76-18.944zM888.465 127.1c0-14.076-9.532-25.527-21.244-25.527h-39.654c-11.712 0-21.244 11.452-21.244 25.527v228.518c0 14.076 9.532 25.527 21.244 25.527h39.654c11.712 0 21.244-11.452 21.244-25.527v-228.518z" />
<glyph unicode="&#xe922;" glyph-name="Half-Star" d="M220.838 22.485l290.398 167.398 1.434 727.45-136.847-306.623-333.156-34.461 248.451-225.29-70.28-328.474z" />
<glyph unicode="&#xe923;" glyph-name="Star" d="M512.67 917.333l135.629-307.168 333.035-35.784-249.344-224.31 68.975-328.738-289.728 168.55-290.398-167.398 70.28 328.474-248.451 225.29 333.156 34.461 136.847 306.623z" />
<glyph unicode="&#xe924;" glyph-name="Minus" d="M85.333 448c0 23.565 19.777 42.667 44.172 42.667h764.988c24.397 0 44.173-19.102 44.173-42.667s-19.776-42.667-44.173-42.667h-764.988c-24.396 0-44.172 19.102-44.172 42.667z" />
<glyph unicode="&#xe925;" glyph-name="Uncheck-Mark---Square" d="M838.4 774.4v-652.8h-652.8v652.8h652.8zM185.6 832c-31.811 0-57.6-25.789-57.6-57.6v-652.8c0-31.812 25.789-57.6 57.6-57.6h652.8c31.812 0 57.6 25.788 57.6 57.6v652.8c0 31.811-25.788 57.6-57.6 57.6h-652.8z" />
<glyph unicode="&#xe926;" glyph-name="Check-Mark---Square" d="M128 774.4c0 31.811 25.789 57.6 57.6 57.6h652.8c31.812 0 57.6-25.789 57.6-57.6v-652.8c0-31.812-25.788-57.6-57.6-57.6h-652.8c-31.811 0-57.6 25.788-57.6 57.6v652.8zM739.823 558.352c10.633 11.832 9.655 30.041-2.176 40.671s-30.042 9.657-40.67-2.175l-238.43-265.371-151.757 152.141c-11.233 11.26-29.468 11.285-40.729 0.051s-11.284-29.466-0.052-40.73l173.239-173.679c5.585-5.602 13.231-8.657 21.141-8.452 7.906 0.209 15.386 3.657 20.672 9.545l258.761 287.999z" />
<glyph unicode="&#xe927;" glyph-name="Check-Mark---Fill" d="M512 21.333c235.639 0 426.667 191.027 426.667 426.667 0 235.642-191.027 426.667-426.667 426.667-235.642 0-426.667-191.025-426.667-426.667 0-235.639 191.025-426.667 426.667-426.667zM750.246 563.401c11.115 12.373 10.099 31.415-2.274 42.532s-31.415 10.098-42.534-2.275l-249.335-277.514-158.7 159.104c-11.747 11.776-30.816 11.802-42.593 0.055-11.777-11.75-11.801-30.818-0.054-42.594l181.166-181.628c5.841-5.854 13.837-9.054 22.106-8.836 8.273 0.218 16.090 3.823 21.619 9.98l270.601 301.175z" />
<glyph unicode="&#xe928;" glyph-name="Check-Mark---Circle" d="M878.43 448c0 202.374-164.053 366.432-366.43 366.432-202.374 0-366.432-164.057-366.432-366.432 0-202.377 164.057-366.43 366.432-366.43 202.377 0 366.43 164.053 366.43 366.43zM938.667 448c0-235.639-191.027-426.667-426.667-426.667-235.642 0-426.667 191.027-426.667 426.667 0 235.642 191.025 426.667 426.667 426.667 235.639 0 426.667-191.025 426.667-426.667zM750.246 563.401l-270.601-301.175c-5.53-6.157-13.346-9.762-21.619-9.98-8.269-0.218-16.265 2.982-22.106 8.836l-181.166 181.628c-11.747 11.776-11.723 30.844 0.054 42.594 11.776 11.746 30.846 11.721 42.593-0.055l158.7-159.104 249.335 277.514c11.119 12.373 30.161 13.391 42.534 2.275s13.389-30.159 2.274-42.532z" />
<glyph unicode="&#xe929;" glyph-name="Close" d="M237.339 777.895c-15.252 15.251-39.979 15.251-55.23 0s-15.252-39.979 0-55.231l274.659-274.664-274.663-274.662c-15.251-15.253-15.251-39.979 0-55.232s39.979-15.253 55.23 0l274.665 274.667 274.662-274.667c15.253-15.253 39.983-15.253 55.232 0 15.253 15.253 15.253 39.979 0 55.232l-274.662 274.662 274.658 274.664c15.253 15.252 15.253 39.979 0 55.231-15.249 15.251-39.979 15.251-55.228 0l-274.662-274.663-274.661 274.663z" />
<glyph unicode="&#xe92a;" glyph-name="Plus" d="M550.4 793.6c0 21.208-17.19 38.4-38.4 38.4s-38.4-17.192-38.4-38.4v-307.2h-307.2c-21.208 0-38.4-17.19-38.4-38.4s17.192-38.4 38.4-38.4h307.2v-307.2c0-21.21 17.19-38.4 38.4-38.4s38.4 17.19 38.4 38.4v307.2h307.2c21.21 0 38.4 17.19 38.4 38.4s-17.19 38.4-38.4 38.4h-307.2v307.2z" />
<glyph unicode="&#xe92b;" glyph-name="Unchecked" d="M512 81.57c-202.374 0-366.432 164.053-366.432 366.43 0 202.374 164.057 366.432 366.432 366.432 202.377 0 366.43-164.057 366.43-366.432 0-202.377-164.053-366.43-366.43-366.43zM512 21.333c235.639 0 426.667 191.027 426.667 426.667 0 235.642-191.027 426.667-426.667 426.667-235.642 0-426.667-191.025-426.667-426.667 0-235.639 191.025-426.667 426.667-426.667z" />
<glyph unicode="&#xe92c;" glyph-name="Checked" d="M878.43 448c0 202.374-164.053 366.432-366.43 366.432-202.374 0-366.432-164.057-366.432-366.432 0-202.377 164.057-366.43 366.432-366.43 202.377 0 366.43 164.053 366.43 366.43zM938.667 448c0-235.639-191.027-426.667-426.667-426.667-235.642 0-426.667 191.027-426.667 426.667 0 235.642 191.025 426.667 426.667 426.667 235.639 0 426.667-191.025 426.667-426.667zM512 197.018c-138.612 0-250.98 112.371-250.98 250.982s112.368 250.98 250.98 250.98c138.611 0 250.982-112.368 250.982-250.98 0-138.611-112.371-250.982-250.982-250.982z" />
<glyph unicode="&#xe92d;" glyph-name="Info" d="M512 81.57c-202.374 0-366.432 164.053-366.432 366.43 0 202.374 164.057 366.432 366.432 366.432 202.377 0 366.43-164.057 366.43-366.432 0-202.377-164.053-366.43-366.43-366.43zM512 21.333c235.639 0 426.667 191.027 426.667 426.667 0 235.642-191.027 426.667-426.667 426.667-235.642 0-426.667-191.025-426.667-426.667 0-235.639 191.025-426.667 426.667-426.667zM411.608 558.432c0 57.465 43.543 105.414 100.392 105.411 54.195-0.003 100.39-41.076 100.39-95.816 0-25.137-16.043-50.886-40.512-76.285-11.746-12.194-24.201-23.070-35.511-32.785-1.062-0.913-2.15-1.843-3.255-2.786l-0.017-0.013c-9.25-7.915-19.618-16.785-25.677-24.124-8.734-10.577-13.602-23.966-16.589-34.829-3.174-11.529-5.146-23.753-6.409-34.462-1.276-10.825-1.903-20.774-2.219-27.985-0.158-3.627-0.235-6.605-0.277-8.717-0.021-1.054-0.030-1.894-0.034-2.492l-0.004-0.461-0.004-0.252v-0.329c0-16.631 13.487-30.118 30.118-30.118s30.118 15.044 30.118 30.114c0 15.066 0.794 61.845 12.548 72.789 2.402 2.236 4.134 3.874 5.491 5.15 1.89 1.788 3.038 2.871 4.228 3.913 1.843 1.613 3.78 3.119 8.721 6.959 0.759 0.593 1.591 1.237 2.505 1.95 11.413 9.801 25.758 22.268 39.646 36.685 26.803 27.823 57.37 68.365 57.37 118.077 0 93.304-73.796 156.051-160.627 156.051-89.773 0-160.628-75.244-160.628-165.647 0-16.634 13.484-30.116 30.118-30.116s30.118 13.482 30.118 30.116zM512 202.039c-16.631 0-30.118 13.483-30.118 30.118 0 16.631 13.487 30.118 30.118 30.118s30.118-13.487 30.118-30.118c0-16.636-13.487-30.118-30.118-30.118z" />
<glyph unicode="&#xe92e;" glyph-name="Up" d="M139.622 245.41c15.2-14.605 39.511-14.276 54.301 0.734l318.078 322.878 318.076-322.878c14.793-15.010 39.104-15.339 54.302-0.734 15.202 14.605 15.535 38.618 0.747 53.632l-345.6 350.813c-7.232 7.339-17.156 11.478-27.524 11.478s-20.292-4.14-27.524-11.478l-345.598-350.813c-14.79-15.014-14.456-39.027 0.744-53.632z" />
<glyph unicode="&#xe92f;" glyph-name="Edit" d="M184.195 747.707c0 15.518 12.58 28.098 28.098 28.098h299.707c15.518 0 28.096 12.579 28.096 28.097s-12.578 28.098-28.096 28.098h-299.707c-46.554 0-84.293-37.739-84.293-84.293v-599.415c0-46.554 37.739-84.292 84.293-84.292h599.415c46.554 0 84.292 37.739 84.292 84.292v299.708c0 15.518-12.578 28.096-28.096 28.096s-28.1-12.578-28.1-28.096v-299.708c0-15.518-12.578-28.096-28.096-28.096h-599.415c-15.518 0-28.098 12.578-28.098 28.096v599.415zM421.749 397.316l341.165 341.163 39.735-39.736-341.163-341.163h-39.738v39.735zM743.044 798.083c10.974 10.973 28.766 10.973 39.735 0l79.475-79.472c10.97-10.973 10.97-28.763 0-39.736l-369.263-369.26c-5.269-5.269-12.416-8.23-19.87-8.23h-79.47c-15.518 0-28.098 12.578-28.098 28.096v79.471c0 7.454 2.96 14.601 8.23 19.87l369.26 369.262z" />
<glyph unicode="&#xe930;" glyph-name="Right" d="M352.077 75.622c-14.607 15.198-14.278 39.509 0.735 54.302l322.879 318.076-322.879 318.078c-15.013 14.789-15.341 39.1-0.735 54.301s38.618 15.533 53.63 0.744l350.816-345.598c7.339-7.232 11.477-17.156 11.477-27.524s-4.139-20.292-11.477-27.524l-350.816-345.6c-15.012-14.788-39.023-14.455-53.63 0.747z" />
<glyph unicode="&#xe931;" glyph-name="Discount" d="M920.26 516.156l-35.358 304.748-304.747 35.358-476.418-476.418 340.107-340.105 476.416 476.416zM536.969 899.446c13.193 13.192 31.693 19.63 50.223 17.48l304.751-35.358c28.151-3.266 50.359-25.472 53.628-53.626l35.358-304.751c2.146-18.53-4.292-37.030-17.481-50.223l-476.416-476.416c-23.851-23.846-62.519-23.846-86.369 0l-340.108 340.109c-23.85 23.851-23.85 62.519 0 86.37l476.415 476.414zM729.566 610.185c15.902 15.9 15.902 41.679 0 57.579-15.898 15.9-41.677 15.9-57.579 0-15.898-15.9-15.898-41.679 0-57.579 15.902-15.9 41.681-15.9 57.579 0zM772.749 567.001c-39.748-39.752-104.196-39.752-143.945 0-39.748 39.75-39.748 104.197 0 143.946s104.196 39.75 143.945 0c39.753-39.75 39.753-104.197 0-143.946z" />
<glyph unicode="&#xe932;" glyph-name="Left" d="M671.923 75.622c14.605 15.198 14.276 39.509-0.734 54.302l-322.878 318.076 322.878 318.078c15.010 14.789 15.339 39.1 0.734 54.301s-38.618 15.533-53.632 0.744l-350.813-345.598c-7.339-7.232-11.478-17.156-11.478-27.524s4.14-20.292 11.478-27.524l350.813-345.6c15.014-14.788 39.027-14.455 53.632 0.747z" />
<glyph unicode="&#xe933;" glyph-name="Delete" d="M353.030 896.279l-38.161-114.531h-199.417c-16.634 0-30.118-14.008-30.118-31.289s13.484-31.289 30.118-31.289h50.196v-646.637c0-51.84 40.453-93.867 90.353-93.867h501.961c49.903 0 90.355 42.027 90.355 93.867v646.637h60.233c16.636 0 30.118 14.008 30.118 31.289s-13.483 31.289-30.118 31.289h-219.494l-38.161 114.531c-4.198 12.602-15.625 21.054-28.463 21.054h-240.94c-12.836 0-24.262-8.452-28.461-21.054zM600.986 854.755l24.324-73.007h-246.7l24.326 73.007h198.050zM225.882 719.171h562.196v-646.637c0-17.28-13.483-31.287-30.118-31.287h-501.961c-16.634 0-30.118 14.007-30.118 31.287v646.637zM371.451 562.726v-359.82c0-17.284-13.484-31.292-30.118-31.292s-30.118 14.007-30.118 31.292v359.82c0 17.28 13.484 31.289 30.118 31.289s30.118-14.008 30.118-31.289zM501.961 594.015c-16.631 0-30.118-14.008-30.118-31.289v-359.82c0-17.284 13.487-31.292 30.118-31.292 16.636 0 30.118 14.007 30.118 31.292v359.82c0 17.28-13.483 31.289-30.118 31.289zM692.706 562.726v-359.82c0-17.284-13.483-31.292-30.118-31.292-16.631 0-30.118 14.007-30.118 31.292v359.82c0 17.28 13.487 31.289 30.118 31.289 16.636 0 30.118-14.008 30.118-31.289z" />
<glyph unicode="&#xe934;" glyph-name="Down" d="M139.622 650.59c15.2 14.607 39.511 14.278 54.301-0.735l318.078-322.879 318.076 322.879c14.793 15.012 39.104 15.341 54.302 0.735 15.202-14.607 15.535-38.618 0.747-53.63l-345.6-350.816c-7.232-7.339-17.156-11.477-27.524-11.477s-20.292 4.139-27.524 11.477l-345.598 350.816c-14.79 15.012-14.456 39.024 0.744 53.63z" />
<glyph unicode="&#xe935;" glyph-name="Facebook" d="M148.25 874.667c-34.667 0-62.917-27.583-62.917-61.5v-730.248c0-34.001 28.25-61.585 62.917-61.585h727.334c34.833 0 63.083 27.584 63.083 61.585v730.248c0 34-28.335 61.5-63.083 61.5h-727.334zM802.935 477.137l-17.536-127.313h-116.13v-328.491h-139.426v328.491h-116.304v127.313h116.39v96.771c0 109.718 70.588 169.474 173.542 169.474 34.726 0.083 69.363-1.577 103.915-5.063v-115.777h-71.108c-55.927 0-66.923-25.479-66.923-62.494v-82.912h133.581z" />
<glyph unicode="&#xe936;" glyph-name="Guarantee" d="M576.235 810.037c37.692 12.054 78.43-1.41 100.971-31.954 26.116-35.393 62.763-61.504 104.516-74.863 37.47-11.987 61.513-45.754 61.513-82.403-0.004-44.121 14.191-86.96 40.329-122.377 22.276-30.187 22.272-70.737-0.009-100.928-26.138-35.409-40.337-78.246-40.337-122.364-0.004-36.642-24.047-70.404-61.508-82.385-41.758-13.355-78.404-39.462-104.521-74.85-22.549-30.549-63.313-44.019-101.009-31.957-41.741 13.355-86.669 13.359-128.414 0.009-37.691-12.058-78.431 1.408-100.97 31.953-26.118 35.392-62.764 61.504-104.519 74.863-37.467 11.985-61.511 45.751-61.509 82.402 0.002 44.122-14.194 86.959-40.329 122.377-22.276 30.187-22.275 70.737 0.007 100.928 26.136 35.409 40.336 78.245 40.338 122.363 0.002 36.643 24.044 70.403 61.507 82.384 41.756 13.354 78.403 39.464 104.522 74.852 22.549 30.551 63.31 44.018 101.007 31.957 41.741-13.354 86.669-13.357 128.414-0.006zM558.178 867.454c-29.995-9.592-62.302-9.59-92.292 0.005-61.536 19.686-128.957-1.878-166.991-53.408-18.536-25.113-44.673-43.808-74.663-53.399-61.523-19.676-103.179-76.115-103.182-139.798-0.002-31.043-9.987-61.291-28.523-86.404-38.033-51.531-38.038-121.317-0.010-172.849 18.535-25.118 28.518-55.369 28.517-86.413-0.003-63.689 41.652-120.137 103.179-139.823 29.991-9.596 56.127-28.288 74.661-53.406 38.022-51.529 105.423-73.088 166.948-53.414 29.995 9.596 62.302 9.591 92.292-0.004 61.534-19.686 128.956 1.877 166.989 53.41 18.539 25.114 44.676 43.806 74.662 53.397 61.525 19.678 103.181 76.117 103.185 139.797 0 31.044 9.984 61.291 28.523 86.404 38.033 51.533 38.037 121.318 0.009 172.852-18.534 25.117-28.518 55.368-28.514 86.414 0 63.689-41.655 120.137-103.181 139.821-29.99 9.595-56.128 28.291-74.662 53.407-38.020 51.526-105.421 73.089-166.946 53.411zM707.422 521.865c11.618 11.748 11.546 30.865-0.162 42.701s-30.622 11.908-42.24 0.161l-205.547-207.778-90.697 91.682c-11.709 11.836-30.621 11.908-42.241 0.162s-11.549-30.865 0.159-42.701l97.765-98.829c19.512-19.725 51.034-19.844 70.401-0.269l212.561 214.869z" />
</font>
</defs>
</svg>
